<?xml version="1.0" standalone="no"?>
<!DOCTYPE svg PUBLIC "-//W3C//DTD SVG 20010904//EN"
 "http://www.w3.org/TR/2001/REC-SVG-20010904/DTD/svg10.dtd">
<svg version="1.0" xmlns="http://www.w3.org/2000/svg"
 width="250.000000pt" height="250.000000pt" viewBox="0 0 250.000000 250.000000"
 preserveAspectRatio="xMidYMid meet">
<metadata>
Created by potrace 1.11, written by Peter Selinger 2001-2013
</metadata>
<g transform="translate(0.000000,250.000000) scale(0.100000,-0.100000)"
fill="#000000" stroke="none">
<path d="M283 2263 c-209 -197 -251 -243 -224 -243 10 0 82 -161 115 -258 62
-180 58 -253 -23 -474 -69 -188 -84 -249 -85 -353 -1 -146 40 -270 136 -415
106 -158 253 -257 445 -301 26 -5 115 -14 198 -19 113 -6 164 -14 208 -30 66
-25 147 -86 173 -130 21 -34 40 -39 49 -11 8 27 85 96 136 122 68 34 94 39
254 49 188 12 265 29 374 81 156 75 297 244 369 441 24 66 27 87 27 208 l0
135 -53 150 c-89 250 -94 270 -88 362 6 95 44 219 113 366 l46 97 -164 157
c-90 87 -194 186 -230 221 l-67 63 -58 -37 c-33 -21 -90 -51 -129 -67 -157
-66 -345 -41 -496 68 -27 19 -52 35 -55 35 -3 0 -20 -11 -37 -24 -18 -13 -59
-37 -92 -54 -194 -97 -372 -81 -562 49 -23 16 -43 29 -45 29 -2 0 -107 -98
-235 -217z"/>
</g>
</svg>
